<svg width="178" height="50" viewBox="0 0 178 50" fill="none" xmlns="http://www.w3.org/2000/svg">
<path d="M23.952 30.048H11.376L9.36 36H0.768L12.96 2.304H22.464L34.656 36H25.968L23.952 30.048ZM21.84 23.712L17.664 11.376L13.536 23.712H21.84ZM49.2626 36.384C46.9266 36.384 44.8466 35.984 43.0226 35.184C41.1986 34.384 39.7586 33.296 38.7026 31.92C37.6466 30.512 37.0546 28.944 36.9266 27.216H45.0386C45.1346 28.144 45.5666 28.896 46.3346 29.472C47.1026 30.048 48.0466 30.336 49.1666 30.336C50.1906 30.336 50.9746 30.144 51.5186 29.76C52.0946 29.344 52.3826 28.816 52.3826 28.176C52.3826 27.408 51.9826 26.848 51.1826 26.496C50.3826 26.112 49.0866 25.696 47.2946 25.248C45.3746 24.8 43.7746 24.336 42.4946 23.856C41.2146 23.344 40.1106 22.56 39.1826 21.504C38.2546 20.416 37.7906 18.96 37.7906 17.136C37.7906 15.6 38.2066 14.208 39.0386 12.96C39.9026 11.68 41.1506 10.672 42.7826 9.936C44.4466 9.2 46.4146 8.832 48.6866 8.832C52.0466 8.832 54.6866 9.664 56.6066 11.328C58.5586 12.992 59.6786 15.2 59.9666 17.952H52.3826C52.2546 17.024 51.8386 16.288 51.1346 15.744C50.4626 15.2 49.5666 14.928 48.4466 14.928C47.4866 14.928 46.7506 15.12 46.2386 15.504C45.7266 15.856 45.4706 16.352 45.4706 16.992C45.4706 17.76 45.8706 18.336 46.6706 18.72C47.5026 19.104 48.7826 19.488 50.5106 19.872C52.4946 20.384 54.1106 20.896 55.3586 21.408C56.6066 21.888 57.6946 22.688 58.6226 23.808C59.5826 24.896 60.0786 26.368 60.1106 28.224C60.1106 29.792 59.6626 31.2 58.7666 32.448C57.9026 33.664 56.6386 34.624 54.9746 35.328C53.3426 36.032 51.4386 36.384 49.2626 36.384ZM75.3083 8.832C77.1963 8.832 78.8443 9.216 80.2523 9.984C81.6923 10.752 82.7963 11.76 83.5643 13.008V9.216H91.7723V35.952C91.7723 38.416 91.2763 40.64 90.2843 42.624C89.3243 44.64 87.8363 46.24 85.8203 47.424C83.8363 48.608 81.3563 49.2 78.3803 49.2C74.4123 49.2 71.1963 48.256 68.7323 46.368C66.2683 44.512 64.8603 41.984 64.5083 38.784H72.6203C72.8763 39.808 73.4843 40.608 74.4443 41.184C75.4043 41.792 76.5883 42.096 77.9963 42.096C79.6923 42.096 81.0363 41.6 82.0283 40.608C83.0523 39.648 83.5643 38.096 83.5643 35.952V32.16C82.7643 33.408 81.6603 34.432 80.2523 35.232C78.8443 36 77.1963 36.384 75.3083 36.384C73.1003 36.384 71.1003 35.824 69.3083 34.704C67.5163 33.552 66.0923 31.936 65.0363 29.856C64.0123 27.744 63.5003 25.312 63.5003 22.56C63.5003 19.808 64.0123 17.392 65.0363 15.312C66.0923 13.232 67.5163 11.632 69.3083 10.512C71.1003 9.392 73.1003 8.832 75.3083 8.832ZM83.5643 22.608C83.5643 20.56 82.9883 18.944 81.8363 17.76C80.7163 16.576 79.3403 15.984 77.7083 15.984C76.0763 15.984 74.6843 16.576 73.5323 17.76C72.4123 18.912 71.8523 20.512 71.8523 22.56C71.8523 24.608 72.4123 26.24 73.5323 27.456C74.6843 28.64 76.0763 29.232 77.7083 29.232C79.3403 29.232 80.7163 28.64 81.8363 27.456C82.9883 26.272 83.5643 24.656 83.5643 22.608ZM96.0784 22.56C96.0784 19.808 96.5904 17.392 97.6144 15.312C98.6704 13.232 100.094 11.632 101.886 10.512C103.678 9.392 105.678 8.832 107.886 8.832C109.774 8.832 111.422 9.216 112.83 9.984C114.27 10.752 115.374 11.76 116.142 13.008V9.216H124.35V36H116.142V32.208C115.342 33.456 114.222 34.464 112.782 35.232C111.374 36 109.726 36.384 107.838 36.384C105.662 36.384 103.678 35.824 101.886 34.704C100.094 33.552 98.6704 31.936 97.6144 29.856C96.5904 27.744 96.0784 25.312 96.0784 22.56ZM116.142 22.608C116.142 20.56 115.566 18.944 114.414 17.76C113.294 16.576 111.918 15.984 110.286 15.984C108.654 15.984 107.262 16.576 106.11 17.76C104.99 18.912 104.43 20.512 104.43 22.56C104.43 24.608 104.99 26.24 106.11 27.456C107.262 28.64 108.654 29.232 110.286 29.232C111.918 29.232 113.294 28.64 114.414 27.456C115.566 26.272 116.142 24.656 116.142 22.608ZM138.497 13.68C139.457 12.208 140.657 11.056 142.097 10.224C143.537 9.36 145.137 8.928 146.897 8.928V17.616H144.641C142.593 17.616 141.057 18.064 140.033 18.96C139.009 19.824 138.497 21.36 138.497 23.568V36H130.289V9.216H138.497V13.68ZM149.188 22.56C149.188 19.808 149.7 17.392 150.724 15.312C151.78 13.232 153.204 11.632 154.996 10.512C156.788 9.392 158.788 8.832 160.996 8.832C162.756 8.832 164.356 9.2 165.796 9.936C167.268 10.672 168.42 11.664 169.252 12.912V0.48H177.46V36H169.252V32.16C168.484 33.44 167.38 34.464 165.94 35.232C164.532 36 162.884 36.384 160.996 36.384C158.788 36.384 156.788 35.824 154.996 34.704C153.204 33.552 151.78 31.936 150.724 29.856C149.7 27.744 149.188 25.312 149.188 22.56ZM169.252 22.608C169.252 20.56 168.676 18.944 167.524 17.76C166.404 16.576 165.028 15.984 163.396 15.984C161.764 15.984 160.372 16.576 159.22 17.76C158.1 18.912 157.54 20.512 157.54 22.56C157.54 24.608 158.1 26.24 159.22 27.456C160.372 28.64 161.764 29.232 163.396 29.232C165.028 29.232 166.404 28.64 167.524 27.456C168.676 26.272 169.252 24.656 169.252 22.608Z" fill="#1E2431"/>
</svg>
